<svg width="324" height="324" viewBox="0 0 324 324" fill="none" xmlns="http://www.w3.org/2000/svg">
<path d="M214.328 16.7969C214.328 13.9459 213.196 11.2116 211.18 9.19554C209.164 7.17952 206.429 6.04694 203.578 6.04694H126.984C124.133 6.04694 121.399 7.17952 119.383 9.19554C117.367 11.2116 116.234 13.9459 116.234 16.7969V100.23C116.234 103.081 117.367 105.816 119.383 107.832C121.399 109.848 124.133 110.98 126.984 110.98H203.578C206.429 110.98 209.164 109.848 211.18 107.832C213.196 105.816 214.328 103.081 214.328 100.23V16.7969ZM147.812 56.1016C144.394 53.2222 141.944 49.3616 140.794 45.0429C139.643 40.7242 139.848 36.1563 141.381 31.958C142.913 27.7597 145.7 24.1341 149.362 21.5723C153.024 19.0106 157.385 17.6367 161.855 17.6367C166.324 17.6367 170.685 19.0106 174.348 21.5723C178.01 24.1341 180.796 27.7597 182.329 31.958C183.861 36.1563 184.066 40.7242 182.916 45.0429C181.765 49.3616 179.315 53.2222 175.897 56.1016L174.97 56.881L176.125 57.2438C182.467 59.2424 188.003 63.2143 191.929 68.5805C195.854 73.9466 197.963 80.4264 197.948 87.0751V96.6829C197.948 97.3956 197.665 98.0792 197.161 98.5832C196.657 99.0872 195.973 99.3704 195.26 99.3704H128.503C127.79 99.3704 127.106 99.0872 126.602 98.5832C126.098 98.0792 125.815 97.3956 125.815 96.6829V87.0751C125.8 80.4264 127.909 73.9466 131.834 68.5805C135.76 63.2143 141.297 59.2424 147.638 57.2438L148.793 56.881L147.812 56.1016Z" fill="#40BDFF"/>
<path d="M160.135 55.7657H163.696C167.872 55.3102 171.714 53.2717 174.433 50.0694C177.152 46.8672 178.54 42.7448 178.312 38.5503C178.084 34.3558 176.257 30.4083 173.207 27.5197C170.157 24.6311 166.116 23.0212 161.915 23.0212C157.714 23.0212 153.674 24.6311 150.624 27.5197C147.574 30.4083 145.747 34.3558 145.519 38.5503C145.291 42.7448 146.679 46.8672 149.397 50.0694C152.116 53.2717 155.959 55.3102 160.135 55.7657V55.7657Z" fill="#EFFAFE"/>
<path d="M131.19 87.0751V93.9954H192.64V87.0751C192.633 80.2013 189.9 73.611 185.041 68.7493C180.182 63.8876 173.593 61.1514 166.719 61.1407H157.111C150.238 61.1514 143.649 63.8876 138.789 68.7493C133.93 73.611 131.197 80.2013 131.19 87.0751Z" fill="#EFFAFE"/>
<path d="M234.605 293.892V300.812H296.055V293.892C296.044 287.02 293.31 280.433 288.451 275.574C283.592 270.716 277.005 267.981 270.134 267.971H260.526C253.655 267.981 247.068 270.716 242.209 275.574C237.35 280.433 234.616 287.02 234.605 293.892V293.892Z" fill="#EFFAFE"/>
<path d="M307.047 212.864H230.332C227.481 212.864 224.747 213.996 222.731 216.012C220.715 218.028 219.582 220.762 219.582 223.614V307.047C219.582 309.898 220.715 312.632 222.731 314.648C224.747 316.664 227.481 317.797 230.332 317.797H307.047C309.898 317.797 312.632 316.664 314.648 314.648C316.664 312.632 317.797 309.898 317.797 307.047V223.614C317.797 220.762 316.664 218.028 314.648 216.012C312.632 213.996 309.898 212.864 307.047 212.864ZM243.528 246.269C243.528 240.489 245.824 234.945 249.912 230.857C253.999 226.77 259.543 224.474 265.323 224.474C271.104 224.474 276.648 226.77 280.735 230.857C284.823 234.945 287.119 240.489 287.119 246.269C287.119 252.907 284.432 258.632 278.438 263.738C293.757 268.616 301.43 281.005 301.43 293.932V303.54C301.43 304.253 301.147 304.936 300.643 305.44C300.139 305.944 299.455 306.227 298.743 306.227H231.918C231.205 306.227 230.521 305.944 230.017 305.44C229.513 304.936 229.23 304.253 229.23 303.54V293.932C229.23 280.924 236.957 268.589 252.222 263.738C246.229 258.672 243.528 252.907 243.528 246.269V246.269Z" fill="#FFDD00"/>
<path d="M263.55 262.582H267.111C271.287 262.127 275.129 260.088 277.848 256.886C280.567 253.684 281.955 249.561 281.727 245.367C281.499 241.172 279.672 237.225 276.622 234.336C273.572 231.448 269.531 229.838 265.33 229.838C261.13 229.838 257.089 231.448 254.039 234.336C250.989 237.225 249.162 241.172 248.934 245.367C248.706 249.561 250.094 253.684 252.813 256.886C255.531 260.088 259.374 262.127 263.55 262.582Z" fill="#EFFAFE"/>
<path d="M27.7888 293.892V300.812H89.2384V293.892C89.2278 287.02 86.4934 280.433 81.6346 275.574C76.7758 270.716 70.1889 267.981 63.3175 267.971H53.7097C46.8383 267.981 40.2514 270.716 35.3926 275.574C30.5338 280.433 27.7994 287.02 27.7888 293.892V293.892Z" fill="#EFFAFE"/>
<path d="M100.23 212.864H23.5156C20.6645 212.864 17.9302 213.996 15.9142 216.012C13.8982 218.028 12.7656 220.762 12.7656 223.614V307.047C12.7656 309.898 13.8982 312.632 15.9142 314.648C17.9302 316.664 20.6645 317.797 23.5156 317.797H100.23C103.081 317.797 105.816 316.664 107.832 314.648C109.848 312.632 110.98 309.898 110.98 307.047V223.614C110.98 220.762 109.848 218.028 107.832 216.012C105.816 213.996 103.081 212.864 100.23 212.864ZM44.4647 262.918C41.0466 260.039 38.5962 256.178 37.4458 251.86C36.2953 247.541 36.5003 242.973 38.0329 238.775C39.5655 234.576 42.3518 230.951 46.014 228.389C49.6763 225.827 54.0376 224.453 58.5069 224.453C62.9762 224.453 67.3374 225.827 70.9997 228.389C74.662 230.951 77.4482 234.576 78.9809 238.775C80.5135 242.973 80.7185 247.541 79.568 251.86C78.4175 256.178 75.9672 260.039 72.5491 262.918L71.6219 263.698L72.7775 264.06C79.1187 266.059 84.6557 270.031 88.5812 275.397C92.5067 280.763 94.6154 287.243 94.6 293.892V303.499C94.6 304.212 94.3169 304.896 93.8129 305.4C93.3088 305.904 92.6253 306.187 91.9125 306.187H25.1013C24.3885 306.187 23.7049 305.904 23.2009 305.4C22.6969 304.896 22.4138 304.212 22.4138 303.499V293.892C22.3954 287.241 24.5029 280.758 28.4286 275.389C32.3543 270.02 37.8929 266.046 44.2362 264.047L45.3919 263.684L44.4647 262.918Z" fill="#EB5639"/>
<path d="M56.7331 262.582H60.2941C64.47 262.127 68.3125 260.088 71.0313 256.886C73.75 253.684 75.1381 249.561 74.91 245.367C74.6819 241.172 72.855 237.225 69.8051 234.336C66.7552 231.448 62.7143 229.838 58.5136 229.838C54.3129 229.838 50.272 231.448 47.2221 234.336C44.1722 237.225 42.3453 241.172 42.1172 245.367C41.8891 249.561 43.2772 253.684 45.9959 256.886C48.7147 260.088 52.5572 262.127 56.7331 262.582V262.582Z" fill="#EFFAFE"/>
<path d="M63.3175 267.971H56.5988C63.4701 267.981 70.057 270.716 74.9159 275.574C79.7747 280.433 82.509 287.02 82.5197 293.892V300.812H89.2384V293.892C89.2278 287.02 86.4934 280.433 81.6346 275.574C76.7758 270.716 70.1889 267.981 63.3175 267.971V267.971Z" fill="#E4EBED"/>
<path d="M58.4531 229.848C57.3243 229.849 56.1986 229.966 55.0938 230.198C58.7835 230.971 62.0947 232.991 64.4713 235.917C66.8479 238.844 68.1451 242.499 68.1451 246.269C68.1451 250.039 66.8479 253.694 64.4713 256.621C62.0947 259.547 58.7835 261.567 55.0938 262.34C55.6044 262.448 56.1419 262.528 56.6659 262.596H60.2269C64.4073 262.146 68.2561 260.11 70.9801 256.908C73.7042 253.705 75.0959 249.579 74.8685 245.381C74.6411 241.183 72.8119 237.231 69.7579 234.342C66.7038 231.452 62.6576 229.844 58.4531 229.848V229.848Z" fill="#E4EBED"/>
<path d="M270.134 267.971H263.415C270.287 267.981 276.874 270.716 281.732 275.574C286.591 280.433 289.326 287.02 289.336 293.892V300.812H296.055V293.892C296.044 287.02 293.31 280.433 288.451 275.574C283.592 270.716 277.005 267.981 270.134 267.971V267.971Z" fill="#E4EBED"/>
<path d="M265.391 229.848C264.262 229.849 263.136 229.966 262.031 230.198C265.721 230.971 269.032 232.991 271.409 235.917C273.785 238.844 275.083 242.499 275.083 246.269C275.083 250.039 273.785 253.694 271.409 256.621C269.032 259.547 265.721 261.567 262.031 262.34C262.542 262.448 263.079 262.528 263.603 262.596H267.164C271.345 262.146 275.194 260.11 277.918 256.908C280.642 253.705 282.033 249.579 281.806 245.381C281.579 241.183 279.749 237.231 276.695 234.342C273.641 231.452 269.595 229.844 265.391 229.848V229.848Z" fill="#E4EBED"/>
<path d="M166.719 61.1407H160C166.876 61.1478 173.469 63.8825 178.331 68.7445C183.193 73.6066 185.928 80.199 185.935 87.0751V93.9954H192.653V87.0751C192.646 80.199 189.912 73.6066 185.05 68.7445C180.187 63.8825 173.595 61.1478 166.719 61.1407V61.1407Z" fill="#E4EBED"/>
<path d="M161.922 23.0319C160.793 23.0327 159.667 23.1498 158.562 23.3813C162.252 24.1548 165.563 26.1744 167.94 29.1009C170.317 32.0274 171.614 35.6826 171.614 39.4526C171.614 43.2225 170.317 46.8777 167.94 49.8042C165.563 52.7307 162.252 54.7503 158.562 55.5238C159.073 55.6313 159.611 55.7119 160.135 55.7791H163.696C167.876 55.3298 171.725 53.2939 174.449 50.0912C177.173 46.8884 178.565 42.7628 178.337 38.5644C178.11 34.3661 176.281 30.4149 173.227 27.5251C170.173 24.6353 166.126 23.0271 161.922 23.0319V23.0319Z" fill="#E4EBED"/>
<path d="M203.578 6.04694H196.859C199.71 6.04694 202.445 7.17952 204.461 9.19554C206.477 11.2116 207.609 13.9459 207.609 16.7969V100.23C207.609 103.081 206.477 105.816 204.461 107.832C202.445 109.848 199.71 110.98 196.859 110.98H203.578C206.429 110.98 209.164 109.848 211.18 107.832C213.196 105.816 214.328 103.081 214.328 100.23V16.7969C214.328 13.9459 213.196 11.2116 211.18 9.19554C209.164 7.17952 206.429 6.04694 203.578 6.04694Z" fill="#2197F7"/>
<path d="M100.23 212.864H93.5116C96.3627 212.864 99.097 213.996 101.113 216.012C103.129 218.028 104.262 220.762 104.262 223.614V307.047C104.262 309.898 103.129 312.632 101.113 314.648C99.097 316.664 96.3627 317.797 93.5116 317.797H100.23C103.081 317.797 105.816 316.664 107.832 314.648C109.848 312.632 110.98 309.898 110.98 307.047V223.614C110.98 220.762 109.848 218.028 107.832 216.012C105.816 213.996 103.081 212.864 100.23 212.864Z" fill="#D84936"/>
<path d="M307.047 212.864H300.328C303.179 212.864 305.914 213.996 307.93 216.012C309.946 218.028 311.078 220.762 311.078 223.614V307.047C311.078 309.898 309.946 312.632 307.93 314.648C305.914 316.664 303.179 317.797 300.328 317.797H307.047C309.898 317.797 312.632 316.664 314.648 314.648C316.664 312.632 317.797 309.898 317.797 307.047V223.614C317.797 220.762 316.664 218.028 314.648 216.012C312.632 213.996 309.898 212.864 307.047 212.864Z" fill="#EFC803"/>
<path d="M176.407 56.6123C179.93 53.6436 182.455 49.6639 183.64 45.2123C184.825 40.7607 184.613 36.0524 183.033 31.7253C181.453 27.3981 178.58 23.6613 174.805 21.0211C171.031 18.3809 166.535 16.9648 161.929 16.9648C157.322 16.9648 152.827 18.3809 149.052 21.0211C145.277 23.6613 142.405 27.3981 140.824 31.7253C139.244 36.0524 139.032 40.7607 140.217 45.2123C141.402 49.6639 143.927 53.6436 147.45 56.6123C140.983 58.6712 135.338 62.7311 131.329 68.2064C127.32 73.6816 125.154 80.2889 125.143 87.0751V96.6829C125.143 97.5739 125.497 98.4283 126.127 99.0583C126.757 99.6883 127.612 100.042 128.503 100.042H195.327C196.218 100.042 197.073 99.6883 197.703 99.0583C198.333 98.4283 198.687 97.5739 198.687 96.6829V87.0751C198.678 80.2923 196.516 73.6874 192.512 68.2126C188.508 62.7378 182.869 58.6759 176.407 56.6123V56.6123ZM146.173 39.4526C146.173 36.4111 147.054 33.4348 148.709 30.883C150.364 28.3313 152.722 26.3134 155.499 25.073C158.276 23.8327 161.353 23.4231 164.358 23.8936C167.363 24.364 170.167 25.6946 172.432 27.7244C174.697 29.7542 176.326 32.3964 177.122 35.3319C177.918 38.2674 177.847 41.3705 176.917 44.2664C175.987 47.1623 174.239 49.7271 171.883 51.6508C169.528 53.5746 166.665 54.7751 163.642 55.1073H160.215C156.358 54.6838 152.793 52.8526 150.202 49.9641C147.611 47.0756 146.176 43.3329 146.173 39.4526V39.4526ZM191.982 93.3907H131.862V87.0751C131.869 80.3808 134.532 73.9627 139.265 69.2292C143.999 64.4956 150.417 61.8331 157.111 61.826H166.719C173.416 61.8296 179.837 64.4905 184.574 69.2244C189.31 73.9584 191.974 80.3785 191.982 87.0751V93.3907Z" fill="#263238"/>
<path d="M220.442 100.23V16.797C220.44 14.586 220.003 12.3971 219.154 10.3556C218.305 8.31414 217.061 6.46019 215.495 4.89992C213.928 3.33966 212.069 2.10375 210.025 1.26296C207.98 0.422164 205.789 -0.00698416 203.578 8.5956e-05H120.266C118.055 -0.00698416 115.864 0.422164 113.819 1.26296C111.774 2.10375 109.915 3.33966 108.349 4.89992C106.782 6.46019 105.539 8.31414 104.69 10.3556C103.841 12.3971 103.403 14.586 103.402 16.797V100.23C103.403 102.441 103.841 104.63 104.69 106.672C105.539 108.713 106.782 110.567 108.349 112.127C109.915 113.688 111.774 114.924 113.819 115.764C115.864 116.605 118.055 117.034 120.266 117.027H203.578C205.789 117.034 207.98 116.605 210.025 115.764C212.069 114.924 213.928 113.688 215.495 112.127C217.061 110.567 218.305 108.713 219.154 106.672C220.003 104.63 220.44 102.441 220.442 100.23V100.23ZM110.134 100.23V16.797C110.135 15.4695 110.399 14.1553 110.91 12.9299C111.42 11.7044 112.167 10.5917 113.108 9.65555C114.05 8.71936 115.166 7.97806 116.394 7.47413C117.623 6.9702 118.938 6.71353 120.266 6.71884H203.578C206.25 6.72239 208.811 7.78533 210.7 9.67458C212.59 11.5638 213.653 14.1252 213.656 16.797V100.23C213.653 102.902 212.59 105.464 210.7 107.353C208.811 109.242 206.25 110.305 203.578 110.309H120.266C118.937 110.316 117.62 110.06 116.39 109.557C115.161 109.054 114.042 108.313 113.1 107.377C112.157 106.44 111.409 105.327 110.897 104.101C110.386 102.874 110.122 101.559 110.12 100.23H110.134Z" fill="#263238"/>
<path d="M25.1013 306.859H91.9259C92.8169 306.859 93.6714 306.505 94.3014 305.875C94.9314 305.245 95.2853 304.39 95.2853 303.499V293.892C95.2786 287.105 93.1158 280.496 89.1089 275.018C85.1021 269.54 79.4585 265.477 72.9925 263.415C76.515 260.447 79.0398 256.467 80.2249 252.015C81.41 247.564 81.1981 242.855 79.6179 238.528C78.0376 234.201 75.1655 230.464 71.3905 227.824C67.6155 225.184 63.1202 223.768 58.5136 223.768C53.907 223.768 49.4117 225.184 45.6367 227.824C41.8617 230.464 38.9896 234.201 37.4094 238.528C35.8291 242.855 35.6172 247.564 36.8023 252.015C37.9874 256.467 40.5122 260.447 44.0347 263.415C37.5687 265.477 31.9251 269.54 27.9183 275.018C23.9114 280.496 21.7486 287.105 21.7419 293.892V303.499C21.7419 304.39 22.0958 305.245 22.7258 305.875C23.3558 306.505 24.2103 306.859 25.1013 306.859V306.859ZM42.7716 246.269C42.7716 243.228 43.6523 240.251 45.3073 237.7C46.9623 235.148 49.3208 233.13 52.0979 231.89C54.8749 230.649 57.9517 230.24 60.9566 230.71C63.9614 231.181 66.7657 232.511 69.0307 234.541C71.2957 236.571 72.9246 239.213 73.7204 242.148C74.5162 245.084 74.445 248.187 73.5154 251.083C72.5857 253.979 70.8374 256.544 68.4817 258.467C66.126 260.391 63.2636 261.592 60.2403 261.924H56.8003C52.9456 261.497 49.3835 259.665 46.7953 256.777C44.2071 253.888 42.7745 250.147 42.7716 246.269V246.269ZM28.4606 293.892C28.4677 287.197 31.1302 280.779 35.8638 276.046C40.5973 271.312 47.0154 268.65 53.7097 268.643H63.3175C70.0118 268.65 76.4299 271.312 81.1634 276.046C85.897 280.779 88.5595 287.197 88.5666 293.892V300.14H28.4606V293.892Z" fill="#263238"/>
<path d="M16.7969 323.844H100.23C104.684 323.84 108.954 322.069 112.104 318.92C115.253 315.771 117.024 311.501 117.027 307.047V223.614C117.024 219.16 115.253 214.89 112.104 211.74C108.954 208.591 104.684 206.82 100.23 206.817H16.7969C12.3432 206.82 8.07288 208.591 4.92362 211.74C1.77437 214.89 0.0035587 219.16 0 223.614V307.047C0.0035587 311.501 1.77437 315.771 4.92362 318.92C8.07288 322.069 12.3432 323.84 16.7969 323.844ZM6.71875 223.614C6.72231 220.942 7.78525 218.38 9.67449 216.491C11.5637 214.602 14.1251 213.539 16.7969 213.535H100.23C102.902 213.539 105.463 214.602 107.353 216.491C109.242 218.38 110.305 220.942 110.308 223.614V307.047C110.305 309.719 109.242 312.28 107.353 314.169C105.463 316.059 102.902 317.122 100.23 317.125H16.7969C14.1251 317.122 11.5637 316.059 9.67449 314.169C7.78525 312.28 6.72231 309.719 6.71875 307.047V223.614Z" fill="#263238"/>
<path d="M279.809 263.415C283.332 260.447 285.856 256.467 287.041 252.015C288.227 247.564 288.015 242.855 286.434 238.528C284.854 234.201 281.982 230.464 278.207 227.824C274.432 225.184 269.937 223.768 265.33 223.768C260.724 223.768 256.228 225.184 252.453 227.824C248.678 230.464 245.806 234.201 244.226 238.528C242.646 242.855 242.434 247.564 243.619 252.015C244.804 256.467 247.329 260.447 250.851 263.415C244.385 265.477 238.742 269.54 234.735 275.018C230.728 280.496 228.565 287.105 228.558 293.892V303.499C228.558 304.39 228.912 305.245 229.542 305.875C230.172 306.505 231.027 306.859 231.918 306.859H298.743C299.633 306.859 300.488 306.505 301.118 305.875C301.748 305.245 302.102 304.39 302.102 303.499V293.892C302.095 287.105 299.932 280.496 295.925 275.018C291.919 269.54 286.275 265.477 279.809 263.415V263.415ZM249.588 246.269C249.588 243.228 250.469 240.251 252.124 237.7C253.779 235.148 256.137 233.13 258.914 231.89C261.691 230.649 264.768 230.24 267.773 230.71C270.778 231.181 273.582 232.511 275.847 234.541C278.112 236.571 279.741 239.213 280.537 242.148C281.333 245.084 281.262 248.187 280.332 251.083C279.402 253.979 277.654 256.544 275.298 258.467C272.943 260.391 270.08 261.592 267.057 261.924H263.63C259.771 261.503 256.202 259.674 253.608 256.785C251.015 253.896 249.578 250.151 249.575 246.269H249.588ZM295.397 300.14H235.277V293.892C235.284 287.197 237.947 280.779 242.68 276.046C247.414 271.312 253.832 268.65 260.526 268.643H270.134C276.828 268.65 283.246 271.312 287.98 276.046C292.714 280.779 295.376 287.197 295.383 293.892L295.397 300.14Z" fill="#263238"/>
<path d="M307.047 206.817H223.613C219.16 206.82 214.889 208.591 211.74 211.74C208.591 214.89 206.82 219.16 206.817 223.614V307.047C206.82 311.501 208.591 315.771 211.74 318.92C214.889 322.069 219.16 323.84 223.613 323.844H307.047C311.501 323.84 315.771 322.069 318.92 318.92C322.069 315.771 323.84 311.501 323.844 307.047V223.614C323.84 219.16 322.069 214.89 318.92 211.74C315.771 208.591 311.501 206.82 307.047 206.817V206.817ZM317.125 307.047C317.121 309.719 316.059 312.28 314.169 314.169C312.28 316.059 309.719 317.122 307.047 317.125H223.613C220.942 317.122 218.38 316.059 216.491 314.169C214.602 312.28 213.539 309.719 213.535 307.047V223.614C213.539 220.942 214.602 218.38 216.491 216.491C218.38 214.602 220.942 213.539 223.613 213.535H307.047C309.719 213.539 312.28 214.602 314.169 216.491C316.059 218.38 317.121 220.942 317.125 223.614V307.047Z" fill="#263238"/>
<path d="M175.359 286.703C175.671 287.015 176.042 287.264 176.45 287.433C176.858 287.602 177.296 287.69 177.738 287.69C178.18 287.69 178.617 287.602 179.025 287.433C179.433 287.264 179.804 287.015 180.116 286.703L199.117 267.702C199.43 267.39 199.678 267.019 199.847 266.611C200.017 266.203 200.104 265.765 200.104 265.324C200.104 264.882 200.017 264.444 199.847 264.036C199.678 263.628 199.43 263.257 199.117 262.945L180.103 243.891C179.472 243.26 178.616 242.906 177.724 242.906C176.832 242.906 175.977 243.26 175.346 243.891C174.715 244.521 174.361 245.377 174.361 246.269C174.361 247.161 174.715 248.017 175.346 248.648L188.609 261.924H127.105C126.214 261.924 125.36 262.278 124.73 262.908C124.1 263.538 123.746 264.392 123.746 265.283C123.746 266.174 124.1 267.029 124.73 267.659C125.36 268.289 126.214 268.643 127.105 268.643H188.622L175.359 281.959C174.732 282.589 174.379 283.442 174.379 284.331C174.379 285.22 174.732 286.073 175.359 286.703V286.703Z" fill="#263238"/>
<path d="M240.706 154.101C241.597 154.101 242.451 153.747 243.081 153.117C243.711 152.487 244.065 151.633 244.065 150.742V131.929L287.563 175.427C288.193 176.057 289.049 176.412 289.941 176.412C290.833 176.412 291.689 176.057 292.319 175.427C292.95 174.796 293.305 173.94 293.305 173.048C293.305 172.156 292.95 171.301 292.319 170.67L248.822 127.173H267.635C268.526 127.173 269.38 126.819 270.01 126.189C270.64 125.559 270.994 124.704 270.994 123.813C270.994 122.922 270.64 122.068 270.01 121.438C269.38 120.808 268.526 120.454 267.635 120.454H240.76C239.869 120.454 239.014 120.808 238.384 121.438C237.754 122.068 237.4 122.922 237.4 123.813V150.688C237.393 151.129 237.473 151.568 237.635 151.978C237.798 152.388 238.039 152.763 238.346 153.079C238.653 153.396 239.02 153.65 239.424 153.825C239.829 154 240.265 154.094 240.706 154.101V154.101Z" fill="#263238"/>
<path d="M85.5028 121.488C85.1908 121.176 84.8201 120.927 84.4119 120.758C84.0038 120.589 83.5663 120.502 83.1244 120.502C82.6825 120.502 82.245 120.589 81.8369 120.758C81.4287 120.927 81.058 121.176 80.7459 121.488L37.2622 164.986V146.173C37.2622 145.282 36.9083 144.428 36.2783 143.798C35.6483 143.168 34.7938 142.814 33.9028 142.814C33.0119 142.814 32.1574 143.168 31.5274 143.798C30.8974 144.428 30.5435 145.282 30.5435 146.173V173.048C30.5435 173.939 30.8974 174.794 31.5274 175.424C32.1574 176.054 33.0119 176.408 33.9028 176.408H60.7778C61.6688 176.408 62.5233 176.054 63.1533 175.424C63.7833 174.794 64.1372 173.939 64.1372 173.048C64.1372 172.157 63.7833 171.303 63.1533 170.673C62.5233 170.043 61.6688 169.689 60.7778 169.689H41.9653L85.4625 126.192C86.0835 125.569 86.4355 124.728 86.443 123.848C86.4506 122.969 86.113 122.122 85.5028 121.488V121.488Z" fill="#263238"/>
<path d="M308.821 71.8907H303.446V66.5157C303.446 66.1593 303.304 65.8175 303.052 65.5655C302.8 65.3135 302.458 65.1719 302.102 65.1719C301.746 65.1719 301.404 65.3135 301.152 65.5655C300.9 65.8175 300.758 66.1593 300.758 66.5157V71.8907H295.383C295.027 71.8907 294.685 72.0323 294.433 72.2843C294.181 72.5363 294.039 72.8781 294.039 73.2344C294.039 73.5908 294.181 73.9326 294.433 74.1846C294.685 74.4366 295.027 74.5782 295.383 74.5782H300.758V79.9532C300.758 80.3096 300.9 80.6514 301.152 80.9034C301.404 81.1554 301.746 81.2969 302.102 81.2969C302.458 81.2969 302.8 81.1554 303.052 80.9034C303.304 80.6514 303.446 80.3096 303.446 79.9532V74.5782H308.821C309.177 74.5782 309.519 74.4366 309.771 74.1846C310.023 73.9326 310.164 73.5908 310.164 73.2344C310.164 72.8781 310.023 72.5363 309.771 72.2843C309.519 72.0323 309.177 71.8907 308.821 71.8907Z" fill="white"/>
<path d="M256.965 41.6563C255.371 41.6563 253.812 41.1835 252.486 40.2975C251.16 39.4116 250.127 38.1524 249.517 36.6792C248.906 35.206 248.747 33.5849 249.058 32.0209C249.369 30.4569 250.137 29.0203 251.264 27.8928C252.392 26.7652 253.828 25.9973 255.392 25.6862C256.956 25.3751 258.578 25.5348 260.051 26.145C261.524 26.7553 262.783 27.7887 263.669 29.1145C264.555 30.4404 265.028 31.9992 265.028 33.5938C265.028 35.7321 264.178 37.7829 262.666 39.2949C261.154 40.8069 259.104 41.6563 256.965 41.6563V41.6563ZM256.965 28.2188C255.902 28.2188 254.863 28.5341 253.979 29.1247C253.095 29.7153 252.406 30.5547 251.999 31.5369C251.593 32.519 251.486 33.5998 251.694 34.6424C251.901 35.6851 252.413 36.6428 253.165 37.3945C253.916 38.1462 254.874 38.6581 255.917 38.8655C256.959 39.0729 258.04 38.9665 259.022 38.5597C260.004 38.1528 260.844 37.4639 261.434 36.58C262.025 35.6961 262.34 34.6569 262.34 33.5938C262.34 32.1683 261.774 30.8011 260.766 29.7931C259.758 28.7851 258.391 28.2188 256.965 28.2188Z" fill="white"/>
<path d="M196.187 189.979C194.593 189.979 193.034 189.507 191.708 188.621C190.382 187.735 189.349 186.476 188.739 185.002C188.128 183.529 187.969 181.908 188.28 180.344C188.591 178.78 189.359 177.343 190.486 176.216C191.614 175.088 193.051 174.32 194.615 174.009C196.179 173.698 197.8 173.858 199.273 174.468C200.746 175.078 202.005 176.112 202.891 177.438C203.777 178.764 204.25 180.322 204.25 181.917C204.25 184.055 203.401 186.106 201.889 187.618C200.377 189.13 198.326 189.979 196.187 189.979ZM196.187 176.542C195.124 176.542 194.085 176.857 193.201 177.448C192.317 178.038 191.628 178.878 191.222 179.86C190.815 180.842 190.708 181.923 190.916 182.966C191.123 184.008 191.635 184.966 192.387 185.718C193.139 186.469 194.096 186.981 195.139 187.189C196.182 187.396 197.262 187.29 198.244 186.883C199.227 186.476 200.066 185.787 200.657 184.903C201.247 184.019 201.562 182.98 201.562 181.917C201.562 180.491 200.996 179.124 199.988 178.116C198.98 177.108 197.613 176.542 196.187 176.542Z" fill="white"/>
<path d="M302.102 143.109C300.507 143.109 298.948 142.637 297.623 141.751C296.297 140.865 295.263 139.606 294.653 138.132C294.043 136.659 293.883 135.038 294.194 133.474C294.505 131.91 295.273 130.473 296.401 129.346C297.528 128.218 298.965 127.45 300.529 127.139C302.093 126.828 303.714 126.988 305.187 127.598C306.661 128.208 307.92 129.242 308.806 130.568C309.692 131.894 310.164 133.452 310.164 135.047C310.164 137.185 309.315 139.236 307.803 140.748C306.291 142.26 304.24 143.109 302.102 143.109ZM302.102 129.672C301.039 129.672 300 129.987 299.116 130.578C298.232 131.168 297.543 132.008 297.136 132.99C296.729 133.972 296.623 135.053 296.83 136.096C297.038 137.138 297.549 138.096 298.301 138.848C299.053 139.599 300.011 140.111 301.053 140.319C302.096 140.526 303.177 140.42 304.159 140.013C305.141 139.606 305.98 138.917 306.571 138.033C307.162 137.149 307.477 136.11 307.477 135.047C307.477 133.621 306.911 132.254 305.903 131.246C304.895 130.238 303.527 129.672 302.102 129.672Z" fill="white"/>
<path d="M68.5985 88.0157H65.1719L67.631 85.5566C67.8511 85.2996 67.9661 84.9689 67.9531 84.6307C67.94 84.2925 67.7998 83.9717 67.5605 83.7324C67.3212 83.4931 67.0004 83.3529 66.6622 83.3398C66.324 83.3268 65.9933 83.4418 65.7363 83.6619L63.2772 86.121V82.6407C63.2772 82.2843 63.1356 81.9425 62.8836 81.6905C62.6316 81.4385 62.2898 81.2969 61.9335 81.2969C61.5771 81.2969 61.2353 81.4385 60.9833 81.6905C60.7313 81.9425 60.5897 82.2843 60.5897 82.6407V86.121L58.1306 83.6619C57.8736 83.4418 57.5429 83.3268 57.2047 83.3398C56.8665 83.3529 56.5457 83.4931 56.3064 83.7324C56.0671 83.9717 55.9269 84.2925 55.9138 84.6307C55.9008 84.9689 56.0158 85.2996 56.2359 85.5566L58.6278 88.0157H55.1609C54.8046 88.0157 54.4628 88.1573 54.2108 88.4093C53.9588 88.6613 53.8172 89.0031 53.8172 89.3594C53.8172 89.7158 53.9588 90.0576 54.2108 90.3096C54.4628 90.5616 54.8046 90.7032 55.1609 90.7032H58.6413L56.1688 93.1623C55.9486 93.4193 55.8336 93.75 55.8466 94.0882C55.8597 94.4263 55.9999 94.7472 56.2392 94.9865C56.4785 95.2258 56.7993 95.366 57.1375 95.3791C57.4757 95.3921 57.8064 95.2771 58.0634 95.0569L60.5225 92.5979V96.0782C60.5225 96.4346 60.6641 96.7764 60.9161 97.0284C61.1681 97.2804 61.5099 97.4219 61.8663 97.4219C62.2226 97.4219 62.5644 97.2804 62.8164 97.0284C63.0684 96.7764 63.21 96.4346 63.21 96.0782V92.5979L65.6691 95.0569C65.9261 95.2771 66.2568 95.3921 66.595 95.3791C66.9332 95.366 67.254 95.2258 67.4933 94.9865C67.7326 94.7472 67.8728 94.4263 67.8859 94.0882C67.8989 93.75 67.7839 93.4193 67.5638 93.1623L65.1719 90.7032H68.6522C69.0086 90.7032 69.3504 90.5616 69.6024 90.3096C69.8544 90.0576 69.996 89.7158 69.996 89.3594C69.996 89.0031 69.8544 88.6613 69.6024 88.4093C69.3504 88.1573 69.0086 88.0157 68.6522 88.0157H68.5985Z" fill="white"/>
</svg>
